<svg xmlns="http://www.w3.org/2000/svg" viewBox="0 0 700 600">
  <defs>
    <filter id="shadow" x="-20%" y="-20%" width="140%" height="140%">
      <feDropShadow dx="0" dy="12" stdDeviation="10" flood-color="#7fbfa2" flood-opacity="0.28"/>
    </filter>
  </defs>
  <g filter="url(#shadow)">
    <ellipse cx="355" cy="525" rx="170" ry="32" fill="#7cc99a" opacity="0.18"/>
    <path d="M248 444c-56 0-92-36-92-90 0-84 74-147 172-147 94 0 168 56 168 128 0 57-38 109-121 109Z" fill="#95e1b8" stroke="#4eb184" stroke-width="16"/>
    <circle cx="276" cy="246" r="84" fill="#95e1b8" stroke="#4eb184" stroke-width="16"/>
    <circle cx="253" cy="225" r="16" fill="#2f616d"/>
    <circle cx="258" cy="220" r="5" fill="#fff"/>
    <circle cx="336" cy="225" r="16" fill="#2f616d"/>
    <circle cx="341" cy="220" r="5" fill="#fff"/>
    <path d="M280 260c17 11 34 11 51 0" stroke="#2f616d" stroke-width="9" stroke-linecap="round"/>
    <path d="M232 188 206 156" stroke="#4eb184" stroke-width="16" stroke-linecap="round"/>
    <path d="M335 184 364 148" stroke="#4eb184" stroke-width="16" stroke-linecap="round"/>
    <circle cx="206" cy="155" r="15" fill="#ffcad6" stroke="#4eb184" stroke-width="10"/>
    <circle cx="366" cy="147" r="15" fill="#ffcad6" stroke="#4eb184" stroke-width="10"/>
    <path d="M396 214c30-57 110-67 142-12 24 42 2 95-46 113" fill="#95e1b8" stroke="#4eb184" stroke-width="16" stroke-linecap="round" stroke-linejoin="round"/>
    <path d="M468 224c16-18 36-23 53-12" stroke="#4eb184" stroke-width="12" stroke-linecap="round"/>
    <path d="M216 438c-6 42-1 70 18 86" stroke="#4eb184" stroke-width="18" stroke-linecap="round"/>
    <path d="M315 445c-6 42-1 70 18 86" stroke="#4eb184" stroke-width="18" stroke-linecap="round"/>
    <path d="M196 500c20 7 34 3 43-10" stroke="#4eb184" stroke-width="10" stroke-linecap="round"/>
    <path d="M294 505c20 7 34 3 43-10" stroke="#4eb184" stroke-width="10" stroke-linecap="round"/>
    <path d="M154 399c-38 18-56 44-51 81" stroke="#4eb184" stroke-width="16" stroke-linecap="round"/>
    <path d="M220 280c-10 28-3 46 23 58" stroke="#ffb0c2" stroke-width="16" stroke-linecap="round" opacity="0.9"/>
  </g>
</svg>
