<svg xmlns="http://www.w3.org/2000/svg" viewBox="0 0 512 512">
  <ellipse cx="256" cy="466" rx="142" ry="28" fill="#7ccf97" opacity=".35"/>
  <path d="M177 368c-2-83 52-143 135-145 78-2 132 46 132 120 0 74-61 122-145 122-74 0-121-34-122-97z" fill="#78d48f" stroke="#4f7869" stroke-width="12"/>
  <path d="M191 349c-43 1-81 19-104 52 52 7 88 1 121-20" fill="#78d48f" stroke="#4f7869" stroke-width="12" stroke-linecap="round" stroke-linejoin="round"/>
  <circle cx="334" cy="196" r="82" fill="#78d48f" stroke="#4f7869" stroke-width="12"/>
  <ellipse cx="354" cy="206" rx="13" ry="18" fill="#24363a"/>
  <circle cx="349" cy="200" r="4" fill="#fff"/>
  <ellipse cx="376" cy="234" rx="12" ry="9" fill="#ffb6c8"/>
  <path d="M333 248c16 12 34 12 48 0" fill="none" stroke="#4f7869" stroke-width="8" stroke-linecap="round"/>
  <path d="M193 180l18-24 21 22" fill="none" stroke="#58be7b" stroke-width="18" stroke-linecap="round" stroke-linejoin="round"/>
  <path d="M226 162l16-26 21 25" fill="none" stroke="#58be7b" stroke-width="18" stroke-linecap="round" stroke-linejoin="round"/>
  <path d="M262 155l16-24 18 21" fill="none" stroke="#58be7b" stroke-width="18" stroke-linecap="round" stroke-linejoin="round"/>
  <path d="M198 401l-12 40" stroke="#4f7869" stroke-width="14" stroke-linecap="round"/>
  <path d="M250 407l0 36" stroke="#4f7869" stroke-width="14" stroke-linecap="round"/>
  <path d="M300 301l26 10" stroke="#4f7869" stroke-width="12" stroke-linecap="round"/>
  <path d="M288 321l34 8" stroke="#4f7869" stroke-width="12" stroke-linecap="round"/>
</svg>
