<svg xmlns="http://www.w3.org/2000/svg" viewBox="0 0 800 640">
  <defs>
    <filter id="shadow" x="-20%" y="-20%" width="140%" height="140%">
      <feDropShadow dx="0" dy="12" stdDeviation="10" flood-color="#7fbfa2" flood-opacity="0.28"/>
    </filter>
  </defs>
  <g filter="url(#shadow)">
    <ellipse cx="400" cy="566" rx="205" ry="34" fill="#7cc99a" opacity="0.18"/>
    <path d="M286 472c-78 0-132-49-132-124 0-110 102-194 236-194 126 0 228 77 228 173 0 76-56 145-165 145Z" fill="#82dbab" stroke="#32996b" stroke-width="20"/>
    <circle cx="324" cy="210" r="98" fill="#82dbab" stroke="#32996b" stroke-width="20"/>
    <circle cx="286" cy="198" r="20" fill="#2e5d71"/>
    <circle cx="292" cy="193" r="6" fill="#fff"/>
    <circle cx="380" cy="198" r="20" fill="#2e5d71"/>
    <circle cx="386" cy="193" r="6" fill="#fff"/>
    <path d="M298 254c27 21 50 26 83 5" stroke="#2e5d71" stroke-width="11" stroke-linecap="round"/>
    <path d="M454 190c44-80 160-101 206-30 33 51 10 120-49 151" fill="#82dbab" stroke="#32996b" stroke-width="20" stroke-linecap="round" stroke-linejoin="round"/>
    <path d="M581 204c25-26 51-34 75-17" stroke="#32996b" stroke-width="13" stroke-linecap="round"/>
    <path d="M246 470c-8 50 1 83 25 103" stroke="#32996b" stroke-width="20" stroke-linecap="round"/>
    <path d="M365 476c-8 50 1 83 25 103" stroke="#32996b" stroke-width="20" stroke-linecap="round"/>
    <path d="M221 544c25 10 45 6 58-12" stroke="#32996b" stroke-width="12" stroke-linecap="round"/>
    <path d="M340 550c25 10 45 6 58-12" stroke="#32996b" stroke-width="12" stroke-linecap="round"/>
    <path d="M166 418c-52 24-75 63-66 112" stroke="#32996b" stroke-width="20" stroke-linecap="round"/>
    <path d="M240 163c24-23 47-33 71-35" stroke="#ffd86b" stroke-width="18" stroke-linecap="round"/>
    <path d="M392 149c24 4 42 15 58 36" stroke="#ffd86b" stroke-width="18" stroke-linecap="round"/>
    <path d="M574 108 590 78" stroke="#ff9ab0" stroke-width="12" stroke-linecap="round"/>
    <path d="M614 114 634 88" stroke="#ff9ab0" stroke-width="12" stroke-linecap="round"/>
    <circle cx="582" cy="118" r="20" fill="#fff7a8" stroke="#ffd86b" stroke-width="8"/>
    <circle cx="617" cy="122" r="16" fill="#fff7a8" stroke="#ffd86b" stroke-width="8"/>
    <g fill="#fff7a8" stroke="#ffd86b" stroke-width="8">
      <circle cx="152" cy="165" r="14"/>
      <circle cx="679" cy="164" r="12"/>
      <circle cx="640" cy="132" r="9"/>
    </g>
    <path d="M244 273c-14 34-5 57 29 71" stroke="#ffb0c2" stroke-width="18" stroke-linecap="round" opacity="0.9"/>
  </g>
</svg>
