<svg xmlns="http://www.w3.org/2000/svg" viewBox="0 0 512 512">
  <ellipse cx="256" cy="466" rx="140" ry="28" fill="#7ccf97" opacity=".35"/>
  <path d="M180 370c-8-40-8-78 12-108 19-29 49-47 90-49 71-4 119 43 119 109 0 57-31 97-82 112-64 18-127-11-139-64z" fill="#89df9d" stroke="#5b7f73" stroke-width="12"/>
  <path d="M185 356c-38-2-73 18-89 48 34 5 75 1 103-15" fill="#89df9d" stroke="#5b7f73" stroke-width="12" stroke-linecap="round" stroke-linejoin="round"/>
  <circle cx="316" cy="196" r="72" fill="#89df9d" stroke="#5b7f73" stroke-width="12"/>
  <ellipse cx="337" cy="208" rx="12" ry="18" fill="#24363a"/>
  <circle cx="332" cy="202" r="4" fill="#fff"/>
  <ellipse cx="358" cy="236" rx="10" ry="8" fill="#ffb6c8"/>
  <path d="M319 244c10 8 24 8 34 0" fill="none" stroke="#5b7f73" stroke-width="8" stroke-linecap="round"/>
  <path d="M192 176l18-18 18 20" fill="none" stroke="#6ecf91" stroke-width="16" stroke-linecap="round" stroke-linejoin="round"/>
  <path d="M220 160l18-22 18 24" fill="none" stroke="#6ecf91" stroke-width="16" stroke-linecap="round" stroke-linejoin="round"/>
  <path d="M248 154l18-18 16 20" fill="none" stroke="#6ecf91" stroke-width="16" stroke-linecap="round" stroke-linejoin="round"/>
  <path d="M223 400l-18 34" stroke="#5b7f73" stroke-width="12" stroke-linecap="round"/>
  <path d="M266 404l-6 34" stroke="#5b7f73" stroke-width="12" stroke-linecap="round"/>
  <path d="M167 314c16 6 28 8 38 4" fill="none" stroke="#5b7f73" stroke-width="10" stroke-linecap="round"/>
  <path d="M142 410l52-8 18 28-96 4c-4-28 4-54 26-69z" fill="#fff8ea" stroke="#6f8f9e" stroke-width="10" stroke-linejoin="round"/>
</svg>
