<svg xmlns="http://www.w3.org/2000/svg" viewBox="0 0 600 600">
  <defs>
    <filter id="shadow" x="-20%" y="-20%" width="140%" height="140%">
      <feDropShadow dx="0" dy="12" stdDeviation="10" flood-color="#7fbfa2" flood-opacity="0.28"/>
    </filter>
  </defs>
  <g filter="url(#shadow)">
    <ellipse cx="300" cy="515" rx="145" ry="28" fill="#7cc99a" opacity="0.18"/>
    <path d="M300 110c91 0 156 88 156 201 0 113-61 171-156 171S144 424 144 311c0-113 65-201 156-201Z" fill="#fff9ef" stroke="#6ec29b" stroke-width="14"/>
    <path d="M216 218c18 0 30 13 30 31 0 18-12 32-30 32s-31-14-31-32c0-18 13-31 31-31Zm152 36c14 0 24 9 24 23s-10 24-24 24-24-10-24-24 10-23 24-23Zm-111 90c23 0 40 16 40 39s-17 39-40 39-40-16-40-39 17-39 40-39Zm116 42c16 0 28 11 28 27s-12 28-28 28-28-12-28-28 12-27 28-27Z" fill="#ffd6a4" opacity="0.9"/>
    <path d="M270 120c16-17 33-29 48-36" stroke="#ffb7c7" stroke-width="14" stroke-linecap="round"/>
  </g>
</svg>
