<svg xmlns="http://www.w3.org/2000/svg" viewBox="0 0 760 620">
  <defs>
    <filter id="shadow" x="-20%" y="-20%" width="140%" height="140%">
      <feDropShadow dx="0" dy="12" stdDeviation="10" flood-color="#7fbfa2" flood-opacity="0.28"/>
    </filter>
  </defs>
  <g filter="url(#shadow)">
    <ellipse cx="390" cy="548" rx="190" ry="34" fill="#7cc99a" opacity="0.18"/>
    <path d="M280 458c-72 0-124-46-124-116 0-102 94-180 218-180 117 0 212 72 212 163 0 72-52 133-152 133Z" fill="#8fe6b6" stroke="#3fa976" stroke-width="18"/>
    <circle cx="310" cy="217" r="94" fill="#8fe6b6" stroke="#3fa976" stroke-width="18"/>
    <circle cx="279" cy="207" r="18" fill="#305f70"/>
    <circle cx="284" cy="202" r="6" fill="#fff"/>
    <circle cx="367" cy="207" r="18" fill="#305f70"/>
    <circle cx="372" cy="202" r="6" fill="#fff"/>
    <path d="M298 256c18 18 40 22 66 4" stroke="#305f70" stroke-width="10" stroke-linecap="round"/>
    <path d="M451 197c38-73 142-90 185-23 30 48 9 110-42 138" fill="#8fe6b6" stroke="#3fa976" stroke-width="18" stroke-linecap="round" stroke-linejoin="round"/>
    <path d="M564 210c20-23 44-29 66-16" stroke="#3fa976" stroke-width="12" stroke-linecap="round"/>
    <path d="M239 452c-8 46 0 77 22 94" stroke="#3fa976" stroke-width="19" stroke-linecap="round"/>
    <path d="M351 458c-8 46 0 77 22 94" stroke="#3fa976" stroke-width="19" stroke-linecap="round"/>
    <path d="M216 523c24 10 41 6 52-11" stroke="#3fa976" stroke-width="11" stroke-linecap="round"/>
    <path d="M328 530c24 10 41 6 52-11" stroke="#3fa976" stroke-width="11" stroke-linecap="round"/>
    <path d="M167 406c-48 22-68 58-59 102" stroke="#3fa976" stroke-width="18" stroke-linecap="round"/>
    <path d="M228 169c20-18 39-27 58-28" stroke="#ffd86b" stroke-width="16" stroke-linecap="round"/>
    <path d="M363 155c19 3 34 12 46 29" stroke="#ffd86b" stroke-width="16" stroke-linecap="round"/>
    <g fill="#fff7a8" stroke="#ffd86b" stroke-width="8">
      <circle cx="151" cy="171" r="14"/>
      <circle cx="592" cy="128" r="12"/>
      <circle cx="634" cy="170" r="9"/>
    </g>
    <path d="M244 280c-12 31-5 52 26 66" stroke="#ffb0c2" stroke-width="18" stroke-linecap="round" opacity="0.9"/>
  </g>
</svg>
