<svg xmlns="http://www.w3.org/2000/svg" viewBox="0 0 512 512">
  <ellipse cx="256" cy="466" rx="146" ry="28" fill="#7ccf97" opacity=".35"/>
  <path d="M171 367c0-92 57-154 150-154 85 0 145 50 145 128 0 82-59 132-155 132-85 0-140-39-140-106z" fill="#6fd387" stroke="#496f62" stroke-width="12"/>
  <path d="M184 352c-52 2-94 24-122 62 60 8 104 0 145-28" fill="#6fd387" stroke="#496f62" stroke-width="12" stroke-linecap="round" stroke-linejoin="round"/>
  <path d="M285 118c61 0 107 38 117 96-26 18-56 28-88 28-67 0-122-40-141-95 29-18 69-29 112-29z" fill="#6fd387" stroke="#496f62" stroke-width="12"/>
  <path d="M378 209c18 2 34 16 33 35-1 20-19 37-43 36-18 0-39-11-51-22" fill="#fff8ea" stroke="#496f62" stroke-width="12" stroke-linejoin="round"/>
  <ellipse cx="351" cy="196" rx="13" ry="18" fill="#24363a"/>
  <circle cx="346" cy="190" r="4" fill="#fff"/>
  <path d="M193 170l18-28 23 26" fill="none" stroke="#4fb770" stroke-width="18" stroke-linecap="round" stroke-linejoin="round"/>
  <path d="M229 150l19-31 22 28" fill="none" stroke="#4fb770" stroke-width="18" stroke-linecap="round" stroke-linejoin="round"/>
  <path d="M266 144l19-27 20 24" fill="none" stroke="#4fb770" stroke-width="18" stroke-linecap="round" stroke-linejoin="round"/>
  <path d="M304 146l18-22 16 20" fill="none" stroke="#4fb770" stroke-width="18" stroke-linecap="round" stroke-linejoin="round"/>
  <path d="M205 404l-14 42" stroke="#496f62" stroke-width="14" stroke-linecap="round"/>
  <path d="M260 408l-4 38" stroke="#496f62" stroke-width="14" stroke-linecap="round"/>
  <path d="M296 310l30 12" stroke="#496f62" stroke-width="12" stroke-linecap="round"/>
  <path d="M282 332l35 10" stroke="#496f62" stroke-width="12" stroke-linecap="round"/>
  <ellipse cx="324" cy="238" rx="13" ry="9" fill="#ffb6c8"/>
</svg>
