<svg xmlns="http://www.w3.org/2000/svg" viewBox="0 0 820 660">
  <defs>
    <filter id="shadow" x="-20%" y="-20%" width="140%" height="140%">
      <feDropShadow dx="0" dy="12" stdDeviation="10" flood-color="#7fbfa2" flood-opacity="0.28"/>
    </filter>
  </defs>
  <g filter="url(#shadow)">
    <ellipse cx="415" cy="585" rx="215" ry="36" fill="#7cc99a" opacity="0.18"/>
    <path d="M292 486c-81 0-138-51-138-128 0-114 107-201 246-201 132 0 239 80 239 179 0 79-58 150-173 150Z" fill="#78d4a0" stroke="#288b60" stroke-width="20"/>
    <circle cx="332" cy="215" r="102" fill="#78d4a0" stroke="#288b60" stroke-width="20"/>
    <circle cx="290" cy="202" r="20" fill="#2e5d71"/>
    <circle cx="296" cy="197" r="6" fill="#fff"/>
    <circle cx="383" cy="202" r="20" fill="#2e5d71"/>
    <circle cx="389" cy="197" r="6" fill="#fff"/>
    <path d="M302 258c29 22 56 27 90 5" stroke="#2e5d71" stroke-width="12" stroke-linecap="round"/>
    <path d="M463 196c47-83 169-106 218-33 34 52 12 126-52 159" fill="#78d4a0" stroke="#288b60" stroke-width="20" stroke-linecap="round" stroke-linejoin="round"/>
    <path d="M596 209c27-28 55-37 82-18" stroke="#288b60" stroke-width="14" stroke-linecap="round"/>
    <path d="M252 486c-8 52 2 88 27 108" stroke="#288b60" stroke-width="21" stroke-linecap="round"/>
    <path d="M373 492c-8 52 2 88 27 108" stroke="#288b60" stroke-width="21" stroke-linecap="round"/>
    <path d="M226 560c26 10 48 6 61-13" stroke="#288b60" stroke-width="12" stroke-linecap="round"/>
    <path d="M347 566c26 10 48 6 61-13" stroke="#288b60" stroke-width="12" stroke-linecap="round"/>
    <path d="M164 430c-55 25-78 66-70 117" stroke="#288b60" stroke-width="20" stroke-linecap="round"/>
    <path d="M246 170c24-23 47-34 73-37" stroke="#ffd86b" stroke-width="18" stroke-linecap="round"/>
    <path d="M398 155c24 5 44 16 61 38" stroke="#ffd86b" stroke-width="18" stroke-linecap="round"/>
    <path d="M279 110h104l-8 39h-88z" fill="#ffd86b" stroke="#f0b02c" stroke-width="10" stroke-linejoin="round"/>
    <path d="M300 108 312 76 330 106 348 72 360 108" fill="#ffd86b" stroke="#f0b02c" stroke-width="10" stroke-linejoin="round"/>
    <g fill="#fff7a8" stroke="#ffd86b" stroke-width="8">
      <circle cx="133" cy="167" r="14"/>
      <circle cx="711" cy="159" r="13"/>
      <circle cx="664" cy="129" r="10"/>
      <circle cx="618" cy="105" r="12"/>
    </g>
    <path d="M245 277c-15 35-6 58 30 72" stroke="#ffb0c2" stroke-width="18" stroke-linecap="round" opacity="0.9"/>
    <circle cx="533" cy="97" r="18" fill="#ffcad6" opacity="0.9"/>
    <circle cx="566" cy="72" r="11" fill="#ffcad6" opacity="0.9"/>
    <circle cx="569" cy="107" r="9" fill="#ffcad6" opacity="0.9"/>
  </g>
</svg>
