<svg xmlns="http://www.w3.org/2000/svg" viewBox="0 0 512 512">
  <ellipse cx="256" cy="466" rx="150" ry="28" fill="#7ccf97" opacity=".35"/>
  <path d="M170 364c0-98 58-160 156-160 92 0 154 53 154 134 0 85-64 137-162 137-89 0-148-40-148-111z" fill="#66cc81" stroke="#466a5d" stroke-width="12"/>
  <path d="M184 352c-55 3-101 26-132 66 69 8 112-1 155-31" fill="#66cc81" stroke="#466a5d" stroke-width="12" stroke-linecap="round" stroke-linejoin="round"/>
  <path d="M296 111c67 0 119 41 129 104-28 18-62 29-97 29-74 0-133-43-151-101 31-20 73-32 119-32z" fill="#66cc81" stroke="#466a5d" stroke-width="12"/>
  <path d="M390 206c19 3 36 17 35 38-1 21-20 39-46 39-20 0-42-11-55-23" fill="#fff8ea" stroke="#466a5d" stroke-width="12" stroke-linejoin="round"/>
  <ellipse cx="360" cy="192" rx="13" ry="18" fill="#24363a"/>
  <circle cx="355" cy="186" r="4" fill="#fff"/>
  <ellipse cx="334" cy="238" rx="13" ry="9" fill="#ffb6c8"/>
  <path d="M194 165l18-30 24 28" fill="none" stroke="#41b06a" stroke-width="18" stroke-linecap="round" stroke-linejoin="round"/>
  <path d="M232 145l20-34 23 30" fill="none" stroke="#41b06a" stroke-width="18" stroke-linecap="round" stroke-linejoin="round"/>
  <path d="M272 138l20-31 22 27" fill="none" stroke="#41b06a" stroke-width="18" stroke-linecap="round" stroke-linejoin="round"/>
  <path d="M313 141l18-26 18 22" fill="none" stroke="#41b06a" stroke-width="18" stroke-linecap="round" stroke-linejoin="round"/>
  <path d="M210 405l-14 42" stroke="#466a5d" stroke-width="14" stroke-linecap="round"/>
  <path d="M266 410l-4 36" stroke="#466a5d" stroke-width="14" stroke-linecap="round"/>
  <path d="M307 307l32 13" stroke="#466a5d" stroke-width="12" stroke-linecap="round"/>
  <path d="M292 330l38 11" stroke="#466a5d" stroke-width="12" stroke-linecap="round"/>
  <path d="M306 84l16 22 22 0-13 19 6 24-22-12-22 12 6-24-13-19 22 0z" fill="#ffd86b" stroke="#c68a1f" stroke-width="8" stroke-linejoin="round"/>
</svg>
